<?xml version="1.0" standalone="no"?>
<!DOCTYPE svg PUBLIC "-//W3C//DTD SVG 20010904//EN"
 "http://www.w3.org/TR/2001/REC-SVG-20010904/DTD/svg10.dtd">
<svg version="1.0" xmlns="http://www.w3.org/2000/svg"
 width="161.000000pt" height="95.000000pt" viewBox="0 0 161.000000 95.000000"
 preserveAspectRatio="xMidYMid meet">

<g transform="translate(0.000000,95.000000) scale(0.100000,-0.100000)"
fill="#000000" stroke="none">
<path d="M458 926 c-87 -32 -72 -12 -283 -378 -156 -273 -168 -302 -151 -393
9 -49 77 -122 125 -135 103 -29 194 2 245 84 88 137 311 536 323 576 17 57 4
129 -33 177 -49 64 -154 96 -226 69z"/>
<path d="M1032 921 c-29 -10 -64 -29 -77 -41 -37 -35 -347 -578 -359 -628 -20
-87 26 -182 107 -221 78 -38 188 -20 243 40 11 11 69 106 129 212 122 213 140
230 171 163 17 -34 17 -36 -16 -108 -47 -101 -48 -178 -5 -239 97 -138 314
-110 365 47 7 21 10 60 7 90 -5 45 -27 91 -157 316 -184 320 -191 329 -238
355 -56 31 -108 36 -170 14z"/>
</g>
</svg>
