<?xml version="1.0" encoding="UTF-8" standalone="no"?>
<svg
   xmlns:dc="http://purl.org/dc/elements/1.1/"
   xmlns:cc="http://creativecommons.org/ns#"
   xmlns:rdf="http://www.w3.org/1999/02/22-rdf-syntax-ns#"
   xmlns:svg="http://www.w3.org/2000/svg"
   xmlns="http://www.w3.org/2000/svg"
   xmlns:sodipodi="http://sodipodi.sourceforge.net/DTD/sodipodi-0.dtd"
   xmlns:inkscape="http://www.inkscape.org/namespaces/inkscape"
   width="56.8102mm"
   height="39.1673mm"
   viewBox="0 0 161 111"
   version="1.1"
   id="svg3"
   sodipodi:docname="logo.svg"
   inkscape:version="0.92.5 (2060ec1f9f, 2020-04-08)">
  <metadata
     id="metadata9">
    <rdf:RDF>
      <cc:Work
         rdf:about="">
        <dc:format>image/svg+xml</dc:format>
        <dc:type
           rdf:resource="http://purl.org/dc/dcmitype/StillImage" />
      </cc:Work>
    </rdf:RDF>
  </metadata>
  <defs
     id="defs7" />
  <sodipodi:namedview
     pagecolor="#ffffff"
     bordercolor="#666666"
     borderopacity="1"
     objecttolerance="10"
     gridtolerance="10"
     guidetolerance="10"
     inkscape:pageopacity="0"
     inkscape:pageshadow="2"
     inkscape:window-width="1920"
     inkscape:window-height="1060"
     id="namedview5"
     showgrid="false"
     inkscape:zoom="1.1272905"
     inkscape:cx="107.35786"
     inkscape:cy="144.98357"
     inkscape:window-x="0"
     inkscape:window-y="0"
     inkscape:window-maximized="0"
     inkscape:current-layer="svg3" />
  <path
     id="Selection"
     fill="none"
     stroke="black"
     stroke-width="1"
     d="M 48.00,12.47            C 34.70,15.44 32.35,23.13 26.15,34.00              26.15,34.00 8.85,64.00 8.85,64.00              3.97,72.54 0.77,75.84 1.01,86.00              1.35,99.98 12.95,107.00 26.00,104.67              34.53,103.15 37.53,97.79 41.60,91.00              41.60,91.00 61.85,56.00 61.85,56.00              65.46,49.68 70.67,42.24 71.52,35.00              73.15,21.10 61.38,10.91 48.00,12.47 Z            M 107.00,12.48            C 92.17,15.11 89.44,24.19 82.72,36.00              82.72,36.00 68.85,60.00 68.85,60.00              65.53,65.81 60.12,73.71 58.68,80.00              56.32,90.29 61.60,101.06 72.00,104.20              92.99,110.53 100.07,88.30 108.12,73.88              109.90,70.70 116.39,57.88 120.12,57.88              123.17,57.88 125.69,63.02 125.38,65.50              124.92,69.12 117.47,78.56 118.19,87.00              119.52,102.81 138.46,110.37 150.98,101.35              157.20,96.88 159.28,90.37 158.96,83.00              158.63,75.57 153.36,68.40 149.72,62.00              149.72,62.00 131.80,31.00 131.80,31.00              125.36,20.18 121.74,11.64 107.00,12.48 Z" />
  <path
     style="fill:#000000;stroke-width:0.62726223"
     d="M 19.344772,137.91142 C 9.1472791,134.26068 3.5782844,127.16742 2.4203358,116.35465 1.8944271,111.44379 2.8420997,104.55439 4.6112488,100.42714 5.3047634,98.809237 12.741363,85.585884 21.137026,71.041921 29.532689,56.497955 38.211225,41.369078 40.42266,37.422194 c 5.157181,-9.204335 9.320436,-13.763029 15.220774,-16.666489 6.369923,-3.134536 10.553167,-3.890632 16.237994,-2.93492 6.245651,1.049996 11.48701,3.744027 15.46273,7.947767 4.878921,5.158736 6.59609,9.32385 6.857934,16.634377 0.191597,5.349346 0.02252,6.48161 -1.652604,11.067336 -1.02632,2.80959 -3.550637,8.031549 -5.6096,11.604352 -18.20142,31.583957 -34.027838,58.656513 -36.309667,62.111043 -3.361933,5.08973 -6.28255,7.73377 -10.862613,9.83397 -4.70111,2.15569 -15.567064,2.63017 -20.422836,0.89179 z"
     id="path11"
     inkscape:connector-curvature="0"
     transform="scale(0.74982849)" />
  <path
     style="fill:#000000;stroke-width:0.62726223"
     d="M 99.77522,138.91259 C 83.525438,135.79808 74.742593,119.77701 80.395268,103.561 81.501003,100.38894 85.968924,91.966383 92.540429,80.665927 104.33973,60.375692 111.17657,48.441965 116.96731,38.028754 c 6.58891,-11.848528 12.86973,-17.234349 23.13137,-19.835223 3.40333,-0.862594 4.87045,-0.920318 8.90162,-0.350235 6.32835,0.894944 10.08896,2.721928 14.34386,6.968559 3.83317,3.825707 6.47869,8.094435 26.64614,42.995196 7.17679,12.419793 14.11088,24.416183 15.4091,26.658646 1.29822,2.242462 3.11589,6.335113 4.03928,9.094793 1.46318,4.37297 1.64205,5.7429 1.39227,10.66345 -0.48354,9.52525 -3.77671,15.75253 -10.842,20.50188 -4.51118,3.03246 -9.41824,4.47367 -15.12974,4.44362 -14.26829,-0.0751 -26.22708,-11.31654 -26.18606,-24.61536 0.0153,-4.96527 1.15194,-8.53545 6.079,-19.094461 3.74302,-8.021536 3.77273,-8.129607 3.01418,-10.96573 -0.88296,-3.301281 -3.30623,-6.752789 -5.41596,-7.714047 -4.82795,-2.19976 -9.47794,3.358382 -20.88108,24.959158 -9.95755,18.86242 -12.68918,23.33642 -17.22063,28.20479 -7.63928,8.2073 -14.78452,10.82582 -24.47344,8.9688 z"
     id="path13"
     inkscape:connector-curvature="0"
     transform="scale(0.74982849)" />
  <path
     style="fill:#000000;stroke-width:0.88708282"
     d="M 17.987433,136.93788 C 12.234948,134.83196 5.983025,128.21228 4.2568542,122.39963 2.6293339,116.91917 2.4570076,109.31313 3.8460205,104.26647 5.3073493,98.957071 43.490917,32.412262 47.921216,27.453966 58.225357,15.921792 74.688378,14.980659 86.080267,25.272547 c 5.383631,4.863786 7.406313,9.737392 7.472303,18.00435 0.04719,5.917942 -0.3408,7.743909 -2.781156,13.087102 -4.055451,8.879468 -39.786719,69.943531 -43.390843,74.154141 -4.637643,5.41805 -9.037716,7.28478 -17.908583,7.59772 -5.323448,0.18781 -8.699809,-0.15851 -11.484555,-1.17798 z"
     id="path15"
     inkscape:connector-curvature="0"
     transform="scale(0.74982849)" />
  <path
     style="fill:#000000;stroke-width:0.88708282"
     d="M 99.30093,138.38663 C 87.60449,135.46266 79.148625,125.1078 79.148625,113.70857 c 0,-8.68093 0.470269,-9.64515 28.670745,-58.784775 7.17448,-12.501607 14.64783,-24.551664 16.60745,-26.777907 3.87833,-4.406019 11.97949,-8.959185 17.64295,-9.91602 4.87051,-0.822866 12.36282,0.903027 17.17879,3.957221 5.22037,3.31066 8.79247,8.682552 29.38127,44.184915 21.22037,36.591416 21.2893,36.741116 21.33083,46.321756 0.0281,6.48565 -0.31156,8.24119 -2.42871,12.55235 -4.15516,8.4612 -12.1117,13.12152 -22.45702,13.15357 -5.26834,0.0163 -7.17414,-0.4225 -11.73661,-2.70239 -3.0449,-1.52155 -6.83255,-4.34064 -8.58896,-6.39261 -3.16183,-3.69389 -5.76328,-10.42796 -5.76328,-14.91873 0,-3.15849 2.57669,-10.96758 6.63525,-20.109242 2.92976,-6.599106 3.15376,-7.631014 2.25054,-10.367796 -1.64768,-4.992501 -4.19561,-7.58555 -7.45359,-7.58555 -4.69149,0 -8.26809,4.745705 -20.0565,26.612488 -9.37158,17.3837 -12.32043,22.10735 -16.80721,26.92278 -6.8773,7.38108 -16.00421,10.59025 -24.25364,8.528 z"
     id="path17"
     inkscape:connector-curvature="0"
     transform="scale(0.74982849)" />
  <path
     style="fill:#000000;stroke-width:0.88708282"
     d="m 99.315979,138.38975 c -8.733793,-2.185 -16.180523,-8.82808 -18.826674,-16.79489 -2.483321,-7.47658 -1.514316,-14.62817 3.243976,-23.941671 7.861397,-15.38726 37.304809,-65.657497 40.744549,-69.565255 5.20961,-5.918429 13.68868,-9.868495 21.18335,-9.868495 7.37052,0 14.60848,3.322982 18.97052,8.709461 6.10112,7.533972 42.15538,69.911661 44.51488,77.01545 1.12881,3.39851 1.3993,6.25882 1.0405,11.00293 -0.77291,10.21955 -4.79296,16.54128 -13.18574,20.7352 -4.59264,2.29497 -6.50467,2.73668 -11.84632,2.73668 -5.33416,0 -7.25531,-0.44252 -11.8167,-2.72187 -8.75593,-4.3754 -14.39054,-12.69818 -14.32934,-21.16562 0.0247,-3.42072 2.43743,-10.7551 7.04743,-21.423497 l 2.90508,-6.722884 -1.83098,-4.139235 c -2.01822,-4.562526 -4.93353,-6.475624 -8.50285,-5.579782 -3.32852,0.835406 -8.0552,7.687399 -18.70389,27.113978 -10.71941,19.55558 -11.74919,21.18231 -16.7806,26.50808 -6.59233,6.978 -15.80164,10.10924 -23.827191,8.10142 z"
     id="path19"
     inkscape:connector-curvature="0"
     transform="scale(0.74982849)" />
  <path
     style="fill:#000000;stroke-width:0.88708282"
     d="m 99.315979,138.38975 c -5.387961,-1.34795 -9.796555,-3.98624 -13.654133,-8.17121 -7.209628,-7.82153 -8.403908,-19.04285 -3.208366,-30.14546 4.908569,-10.489371 38.39377,-67.860583 41.99584,-71.952753 5.23939,-5.952268 13.699,-9.900888 21.21186,-9.900888 7.34934,0 14.59047,3.318793 19.00278,8.709461 5.70407,6.968847 40.96087,67.684771 44.06371,75.88236 1.53853,4.06474 1.81082,6.26789 1.45122,11.74222 -0.69096,10.51862 -4.65104,16.86825 -13.17755,21.129 -4.59264,2.29497 -6.50467,2.73668 -11.84632,2.73668 -5.33416,0 -7.25531,-0.44252 -11.8167,-2.72187 -6.46774,-3.23197 -11.08038,-8.28818 -13.09532,-14.3546 -1.98885,-5.98785 -1.33546,-11.0239 2.67586,-20.62455 1.83466,-4.39106 3.94523,-9.452254 4.69017,-11.247097 1.27445,-3.070677 1.2365,-3.506944 -0.64282,-7.389092 -3.55172,-7.336895 -8.65048,-7.574797 -13.71327,-0.639843 -1.68464,2.307593 -5.5221,8.586684 -8.52769,13.953535 -3.0056,5.366847 -7.91245,14.123897 -10.90412,19.460087 -10.82837,19.31437 -21.70889,26.73536 -34.505151,23.53402 z"
     id="path21"
     inkscape:connector-curvature="0"
     transform="scale(0.74982849)" />
  <path
     style="fill:#000000;stroke-width:0.88708282"
     d="m 98.220905,138.06537 c -5.439411,-1.72026 -8.568752,-3.61734 -12.099646,-7.33507 -5.401092,-5.6869 -6.512787,-8.63607 -6.521425,-17.30043 -0.0075,-7.48511 0.111351,-7.92482 4.434417,-16.411037 7.991529,-15.687446 36.807159,-64.799701 40.444289,-68.931698 2.19039,-2.488423 5.8251,-5.154641 9.47737,-6.952079 5.05945,-2.489971 6.83331,-2.906742 12.15069,-2.854821 7.69579,0.07514 13.88663,2.942519 18.48663,8.562351 5.8478,7.144262 40.94328,67.535759 44.11014,75.903724 1.56429,4.13338 1.83651,6.31174 1.47552,11.80717 -0.69096,10.51862 -4.65104,16.86825 -13.17755,21.129 -14.16447,7.07807 -31.94886,0.1402 -36.75834,-14.33979 -1.99533,-6.00739 -1.33205,-11.04977 2.71298,-20.62455 1.85508,-4.39106 3.35989,-8.879275 3.34402,-9.973812 -0.0161,-1.107424 0.36497,-1.746678 0.85906,-1.441306 0.5567,0.344059 0.65157,-0.195926 0.2543,-1.447583 -0.40183,-1.266068 -0.30461,-1.793008 0.26578,-1.44049 0.541,0.334353 0.71543,-0.147641 0.43772,-1.209557 -0.25391,-0.970977 -0.8833,-1.504824 -1.39864,-1.186327 -0.60034,0.371031 -0.71355,-0.0032 -0.3151,-1.041498 0.43089,-1.122881 -0.11866,-2.393528 -1.78939,-4.137394 -5.81314,-6.067615 -9.45313,-2.454423 -23.82753,23.652127 -10.97044,19.92433 -14.04672,24.57789 -19.60646,29.65918 -7.1162,6.50381 -14.8194,8.48806 -22.958835,5.91389 z"
     id="path23"
     inkscape:connector-curvature="0"
     transform="scale(0.74982849)" />
</svg>
