<svg id="visual" viewBox="0 0 960 540" width="960" height="540" xmlns="http://www.w3.org/2000/svg" xmlns:xlink="http://www.w3.org/1999/xlink" version="1.1"><g stroke-width="1" stroke-linejoin="bevel"><path d="M514.3 301L447.7 347L547.3 346Z" fill="#904fab" stroke="#904fab"></path><path d="M514.3 301L437.7 294L447.7 347Z" fill="#9452af" stroke="#9452af"></path><path d="M447.7 347L515.3 456L547.3 346Z" fill="#904fab" stroke="#904fab"></path><path d="M437.7 294L355 353L447.7 347Z" fill="#7b3a96" stroke="#7b3a96"></path><path d="M447.7 347L421.7 488L515.3 456Z" fill="#9756b2" stroke="#9756b2"></path><path d="M515.3 456L636 410L547.3 346Z" fill="#7b3a96" stroke="#7b3a96"></path><path d="M547.3 346L670 303L514.3 301Z" fill="#8948a4" stroke="#8948a4"></path><path d="M355 353L421.7 488L447.7 347Z" fill="#8545a0" stroke="#8545a0"></path><path d="M397.7 201L359 267L437.7 294Z" fill="#8d4ba8" stroke="#8d4ba8"></path><path d="M437.7 294L359 267L355 353Z" fill="#773792" stroke="#773792"></path><path d="M636 410L658 364L547.3 346Z" fill="#9b59b6" stroke="#9b59b6"></path><path d="M495.3 162L437.7 294L514.3 301Z" fill="#9b59b6" stroke="#9b59b6"></path><path d="M495.3 162L397.7 201L437.7 294Z" fill="#8545a0" stroke="#8545a0"></path><path d="M658 364L670 303L547.3 346Z" fill="#773792" stroke="#773792"></path><path d="M617 173L495.3 162L514.3 301Z" fill="#7b3a96" stroke="#7b3a96"></path><path d="M421.7 488L518.3 540L515.3 456Z" fill="#9b59b6" stroke="#9b59b6"></path><path d="M515.3 456L614 540L636 410Z" fill="#8948a4" stroke="#8948a4"></path><path d="M194.3 363L334 459L355 353Z" fill="#904fab" stroke="#904fab"></path><path d="M355 353L334 459L421.7 488Z" fill="#9b59b6" stroke="#9b59b6"></path><path d="M421.7 488L421.7 540L518.3 540Z" fill="#8d4ba8" stroke="#8d4ba8"></path><path d="M308 540L421.7 540L421.7 488Z" fill="#9452af" stroke="#9452af"></path><path d="M670 303L617 173L514.3 301Z" fill="#82419d" stroke="#82419d"></path><path d="M518.3 540L614 540L515.3 456Z" fill="#773792" stroke="#773792"></path><path d="M636 410L746.7 375L658 364Z" fill="#773792" stroke="#773792"></path><path d="M670 303L722.7 242L617 173Z" fill="#7b3a96" stroke="#7b3a96"></path><path d="M746.7 375L722.7 242L670 303Z" fill="#9756b2" stroke="#9756b2"></path><path d="M746.7 375L670 303L658 364Z" fill="#82419d" stroke="#82419d"></path><path d="M762.7 413L746.7 375L636 410Z" fill="#8948a4" stroke="#8948a4"></path><path d="M495.3 162L408.7 103L397.7 201Z" fill="#904fab" stroke="#904fab"></path><path d="M397.7 201L310 165L359 267Z" fill="#8948a4" stroke="#8948a4"></path><path d="M514.3 83L408.7 103L495.3 162Z" fill="#8545a0" stroke="#8545a0"></path><path d="M408.7 103L310 165L397.7 201Z" fill="#9452af" stroke="#9452af"></path><path d="M197.3 271L194.3 363L355 353Z" fill="#82419d" stroke="#82419d"></path><path d="M618 99L514.3 83L617 173Z" fill="#9452af" stroke="#9452af"></path><path d="M617 173L514.3 83L495.3 162Z" fill="#7e3e99" stroke="#7e3e99"></path><path d="M334 459L308 540L421.7 488Z" fill="#773792" stroke="#773792"></path><path d="M232.3 540L308 540L334 459Z" fill="#8545a0" stroke="#8545a0"></path><path d="M751.7 540L762.7 413L636 410Z" fill="#8d4ba8" stroke="#8d4ba8"></path><path d="M847.3 191L744.7 140L722.7 242Z" fill="#82419d" stroke="#82419d"></path><path d="M744.7 140L618 99L617 173Z" fill="#8d4ba8" stroke="#8d4ba8"></path><path d="M408.7 103L347 89L310 165Z" fill="#82419d" stroke="#82419d"></path><path d="M406.7 0L347 89L408.7 103Z" fill="#7e3e99" stroke="#7e3e99"></path><path d="M197.3 271L359 267L310 165Z" fill="#904fab" stroke="#904fab"></path><path d="M197.3 271L355 353L359 267Z" fill="#9756b2" stroke="#9756b2"></path><path d="M183.3 210L197.3 271L310 165Z" fill="#7e3e99" stroke="#7e3e99"></path><path d="M194.3 363L198.3 454L334 459Z" fill="#8d4ba8" stroke="#8d4ba8"></path><path d="M614 540L751.7 540L636 410Z" fill="#8948a4" stroke="#8948a4"></path><path d="M860.3 356L722.7 242L746.7 375Z" fill="#9452af" stroke="#9452af"></path><path d="M722.7 242L744.7 140L617 173Z" fill="#7e3e99" stroke="#7e3e99"></path><path d="M751.7 540L814.3 419L762.7 413Z" fill="#904fab" stroke="#904fab"></path><path d="M762.7 413L814.3 419L746.7 375Z" fill="#904fab" stroke="#904fab"></path><path d="M198.3 454L232.3 540L334 459Z" fill="#9756b2" stroke="#9756b2"></path><path d="M347 89L244.3 124L310 165Z" fill="#7e3e99" stroke="#7e3e99"></path><path d="M244.3 124L183.3 210L310 165Z" fill="#8d4ba8" stroke="#8d4ba8"></path><path d="M96.7 300L101.7 363L194.3 363Z" fill="#8545a0" stroke="#8545a0"></path><path d="M194.3 363L101.7 363L198.3 454Z" fill="#8545a0" stroke="#8545a0"></path><path d="M618 99L550.3 0L514.3 83Z" fill="#82419d" stroke="#82419d"></path><path d="M514.3 83L406.7 0L408.7 103Z" fill="#8545a0" stroke="#8545a0"></path><path d="M347 89L282 0L244.3 124Z" fill="#904fab" stroke="#904fab"></path><path d="M659 0L550.3 0L618 99Z" fill="#9b59b6" stroke="#9b59b6"></path><path d="M550.3 0L406.7 0L514.3 83Z" fill="#773792" stroke="#773792"></path><path d="M960 368L860.3 356L960 428Z" fill="#8d4ba8" stroke="#8d4ba8"></path><path d="M814.3 419L860.3 356L746.7 375Z" fill="#9b59b6" stroke="#9b59b6"></path><path d="M751.7 540L813.3 540L814.3 419Z" fill="#8d4ba8" stroke="#8d4ba8"></path><path d="M881.3 77L743.7 61L744.7 140Z" fill="#8948a4" stroke="#8948a4"></path><path d="M744.7 140L743.7 61L618 99Z" fill="#9452af" stroke="#9452af"></path><path d="M870.3 232L847.3 191L722.7 242Z" fill="#904fab" stroke="#904fab"></path><path d="M743.7 61L659 0L618 99Z" fill="#7b3a96" stroke="#7b3a96"></path><path d="M860.3 356L870.3 232L722.7 242Z" fill="#773792" stroke="#773792"></path><path d="M96.7 300L194.3 363L197.3 271Z" fill="#7e3e99" stroke="#7e3e99"></path><path d="M198.3 454L128.7 540L232.3 540Z" fill="#8d4ba8" stroke="#8d4ba8"></path><path d="M121.7 159L96.7 300L183.3 210Z" fill="#904fab" stroke="#904fab"></path><path d="M183.3 210L96.7 300L197.3 271Z" fill="#7b3a96" stroke="#7b3a96"></path><path d="M406.7 0L282 0L347 89Z" fill="#9756b2" stroke="#9756b2"></path><path d="M122.7 129L121.7 159L183.3 210Z" fill="#7b3a96" stroke="#7b3a96"></path><path d="M864.3 0L724.7 0L743.7 61Z" fill="#8948a4" stroke="#8948a4"></path><path d="M743.7 61L724.7 0L659 0Z" fill="#8545a0" stroke="#8545a0"></path><path d="M70.7 450L128.7 540L198.3 454Z" fill="#82419d" stroke="#82419d"></path><path d="M122.7 129L183.3 210L244.3 124Z" fill="#82419d" stroke="#82419d"></path><path d="M282 0L250.3 0L244.3 124Z" fill="#8545a0" stroke="#8545a0"></path><path d="M250.3 0L122.7 129L244.3 124Z" fill="#8948a4" stroke="#8948a4"></path><path d="M0 287L0 360L96.7 300Z" fill="#8948a4" stroke="#8948a4"></path><path d="M0 360L70.7 450L101.7 363Z" fill="#9b59b6" stroke="#9b59b6"></path><path d="M101.7 363L70.7 450L198.3 454Z" fill="#8d4ba8" stroke="#8d4ba8"></path><path d="M0 360L101.7 363L96.7 300Z" fill="#8948a4" stroke="#8948a4"></path><path d="M960 428L860.3 356L814.3 419Z" fill="#8545a0" stroke="#8545a0"></path><path d="M860.3 356L960 261L870.3 232Z" fill="#7e3e99" stroke="#7e3e99"></path><path d="M960 125L881.3 77L847.3 191Z" fill="#7e3e99" stroke="#7e3e99"></path><path d="M813.3 540L960 428L814.3 419Z" fill="#9452af" stroke="#9452af"></path><path d="M960 219L847.3 191L870.3 232Z" fill="#9b59b6" stroke="#9b59b6"></path><path d="M847.3 191L881.3 77L744.7 140Z" fill="#9452af" stroke="#9452af"></path><path d="M960 368L960 261L860.3 356Z" fill="#8d4ba8" stroke="#8d4ba8"></path><path d="M960 261L960 219L870.3 232Z" fill="#7b3a96" stroke="#7b3a96"></path><path d="M0 287L96.7 300L0 180Z" fill="#8948a4" stroke="#8948a4"></path><path d="M70.7 450L0 540L128.7 540Z" fill="#8545a0" stroke="#8545a0"></path><path d="M813.3 540L960 540L960 428Z" fill="#773792" stroke="#773792"></path><path d="M0 180L96.7 300L121.7 159Z" fill="#7b3a96" stroke="#7b3a96"></path><path d="M960 0L864.3 0L881.3 77Z" fill="#7b3a96" stroke="#7b3a96"></path><path d="M881.3 77L864.3 0L743.7 61Z" fill="#7b3a96" stroke="#7b3a96"></path><path d="M0 360L0 453L70.7 450Z" fill="#9b59b6" stroke="#9b59b6"></path><path d="M960 219L960 125L847.3 191Z" fill="#8948a4" stroke="#8948a4"></path><path d="M0 88L0 180L122.7 129Z" fill="#9b59b6" stroke="#9b59b6"></path><path d="M122.7 129L0 180L121.7 159Z" fill="#8d4ba8" stroke="#8d4ba8"></path><path d="M250.3 0L94.7 0L122.7 129Z" fill="#8d4ba8" stroke="#8d4ba8"></path><path d="M0 453L0 540L70.7 450Z" fill="#9b59b6" stroke="#9b59b6"></path><path d="M94.7 0L0 88L122.7 129Z" fill="#7b3a96" stroke="#7b3a96"></path><path d="M960 125L960 0L881.3 77Z" fill="#773792" stroke="#773792"></path><path d="M94.7 0L0 0L0 88Z" fill="#7b3a96" stroke="#7b3a96"></path></g></svg>